<?xml version="1.0" encoding="utf-8"?>
<!-- Generator: Adobe Illustrator 18.1.0, SVG Export Plug-In . SVG Version: 6.00 Build 0)  -->
<!DOCTYPE svg PUBLIC "-//W3C//DTD SVG 1.1//EN" "http://www.w3.org/Graphics/SVG/1.1/DTD/svg11.dtd">
<svg version="1.1" id="Layer_1" xmlns="http://www.w3.org/2000/svg" xmlns:xlink="http://www.w3.org/1999/xlink" x="0px" y="0px"
	 viewBox="0 0 225 225" style="enable-background:new 0 0 225 225;" xml:space="preserve">
<style type="text/css">
	.st0{fill:#F2F2F2;}
	.st1{fill:#ACC54B;}
</style>
<g>
	<path class="st0" d="M122.1,60.3l8.8-46c-3-0.6-6.2-1-9.4-1.3c-3.1-0.3-6.6-0.5-9.6-0.5v46.8C115,59.3,118.9,59.7,122.1,60.3z"/>
	<path class="st1" d="M212.2,104.6c-0.7-8.8-2.6-17.3-5.5-25.4s-6.8-15.7-11.6-22.8c-4.8-7.1-10.5-13.5-16.9-19.2
		c-6.4-5.7-13.6-10.5-21.6-14.4c-7.9-3.9-16.4-6.8-25.4-8.5l-8.8,46c1.4,0.3,2.8,0.6,4.2,1c4.5,1.3,8.8,3,12.7,5.4
		c3.9,2.3,7.5,5.1,10.8,8.3c3.2,3.2,6,6.8,8.3,10.8c2.3,3.9,4.1,8.2,5.4,12.7c1.3,4.5,1.9,9.3,1.9,14.2c0,4.9-0.6,9.6-1.9,14.2
		c-1.3,4.5-3,8.8-5.4,12.7c-2.3,3.9-5.1,7.5-8.3,10.7c-3.2,3.2-6.8,5.9-10.8,8.2c-3.9,2.3-8.2,4.1-12.7,5.3
		c-4.5,1.3-9.3,1.9-14.2,1.9c-7.4,0-14.3-1.4-20.7-4.1c-6.4-2.8-12-6.5-16.8-11.3c-4.8-4.8-8.6-10.4-11.3-16.8
		c-2.8-6.4-4.1-13.3-4.1-20.7c0-4.9,0.6-9.6,1.9-14.2c1.3-4.5,3-8.8,5.3-12.7c2.3-3.9,5-7.5,8.2-10.8c3.2-3.2,6.8-6,10.7-8.3
		s8-4.1,12.5-5.4c4.5-1.3,9-1.9,14-1.9V12.5c-8,0-15.3,0.9-22.8,2.7C81.8,17,74.8,19.6,68,23c-6.8,3.4-13,7.5-18.9,12.3
		C43.2,40.1,38,45.5,33.3,51.5c-4.6,6-8.6,12.6-11.8,19.7c-3.2,7.1-5.6,14.7-7.2,22.7c-1.7,9.1-2.2,18-1.5,26.8
		c0.7,8.8,2.5,17.2,5.4,25.3c2.9,8.1,6.7,15.7,11.5,22.8s10.5,13.5,16.9,19.1s13.6,10.4,21.5,14.3c7.9,3.9,16.4,6.8,25.4,8.5
		c9,1.7,17.9,2.2,26.8,1.5c8.8-0.7,17.3-2.5,25.4-5.4c8.1-2.8,15.7-6.7,22.8-11.5c7.1-4.8,13.5-10.4,19.2-16.9
		c5.7-6.4,10.5-13.6,14.4-21.6c3.9-7.9,6.8-16.4,8.5-25.4C212.4,122.4,212.9,113.5,212.2,104.6z"/>
</g>
</svg>
