<?xml version="1.0" encoding="utf-8"?>
<!-- Generator: Adobe Illustrator 18.1.0, SVG Export Plug-In . SVG Version: 6.00 Build 0)  -->
<!DOCTYPE svg PUBLIC "-//W3C//DTD SVG 1.1//EN" "http://www.w3.org/Graphics/SVG/1.1/DTD/svg11.dtd">
<svg version="1.1" id="Layer_1" xmlns="http://www.w3.org/2000/svg" xmlns:xlink="http://www.w3.org/1999/xlink" x="0px" y="0px"
	 viewBox="0 0 225 225" style="enable-background:new 0 0 225 225;" xml:space="preserve">
<style type="text/css">
	.st0{fill:#F2F2F2;}
	.st1{fill:#FFCD41;}
</style>
<g>
	<path class="st0" d="M208.9,86.2c-2.4-8.5-5.7-16.5-10.1-23.9c-4.3-7.4-9.6-14.2-15.7-20.2c-6.1-6.1-12.8-11.3-20.2-15.7
		c-7.4-4.3-15.1-7.7-23.6-10.1c-8.5-2.4-17.3-3.6-26.3-3.6v46.8c5,0,9.3,0.6,13.9,1.9c4.5,1.3,8.6,3,12.6,5.4
		c3.9,2.3,7.5,5.1,10.7,8.3c3.2,3.2,6,6.8,8.3,10.8c2.3,3.9,4.1,8.2,5.3,12.7c1.3,4.5,1.9,9.2,1.9,14.2s-0.6,9.6-1.9,14.2
		c-1.3,4.5-3.1,8.8-5.4,12.7c-2.3,3.9-5.1,7.5-8.3,10.7c-0.4,0.4-0.8,0.8-1.3,1.2l32.1,34.1c4.9-4.5,9.2-9.5,13.1-15
		c3.9-5.5,7.2-11.3,9.9-17.4c2.7-6.2,4.8-12.6,6.3-19.4c1.5-6.8,2.2-13.8,2.2-20.9C212.5,103.6,211.3,94.7,208.9,86.2z"/>
	<path class="st1" d="M148.8,151.5c-2.9,2.7-6.1,5-9.5,7c-3.9,2.3-8.2,4.1-12.7,5.3s-9.2,1.9-14.2,1.9c-7.4,0-14.3-1.4-20.7-4.1
		c-6.4-2.8-12-6.5-16.8-11.3c-4.8-4.8-8.6-10.4-11.3-16.8c-2.8-6.4-4.1-13.3-4.1-20.7c0-4.9,0.6-9.6,1.9-14.2
		c1.3-4.5,3-8.8,5.3-12.7c2.3-3.9,5-7.5,8.2-10.8c3.2-3.2,6.8-6,10.7-8.3c3.9-2.3,8.2-4.1,12.7-5.4c4.5-1.3,9.2-1.9,14.2-1.9
		c0,0,0,0,0,0l0-46.6c-6.1,0-12.2,0.6-18.3,1.7c-6.1,1.1-12,2.8-17.8,5.1c-5.8,2.3-11.4,5.1-16.9,8.5c-5.4,3.4-10.6,7.3-15.4,11.9
		c-6.7,6.3-12.4,13.2-17,20.8c-4.6,7.5-8.1,15.4-10.5,23.7c-2.4,8.2-3.8,16.7-4.1,25.2c-0.3,8.6,0.5,17.1,2.4,25.4
		c1.9,8.4,4.9,16.5,9,24.3c4.1,7.8,9.3,15.1,15.6,21.8c6.3,6.7,13.2,12.4,20.8,16.9c7.6,4.6,15.5,8,23.7,10.5
		c8.2,2.4,16.7,3.8,25.3,4.1c8.6,0.3,17.1-0.5,25.5-2.5c8.4-1.9,16.5-4.9,24.3-9c7.8-4.1,15.1-9.3,21.9-15.6L148.8,151.5z"/>
</g>
</svg>
