<?xml version="1.0" encoding="utf-8"?>
<!-- Generator: Adobe Illustrator 18.1.0, SVG Export Plug-In . SVG Version: 6.00 Build 0)  -->
<!DOCTYPE svg PUBLIC "-//W3C//DTD SVG 1.1//EN" "http://www.w3.org/Graphics/SVG/1.1/DTD/svg11.dtd">
<svg version="1.1" id="Layer_1" xmlns="http://www.w3.org/2000/svg" xmlns:xlink="http://www.w3.org/1999/xlink" x="0px" y="0px"
	 viewBox="0 0 612 792" style="enable-background:new 0 0 612 792;" xml:space="preserve">
<style type="text/css">
	.st0{opacity:0.2;}
	.st1{fill:#E6E7E8;}
	.st2{fill:#939598;}
	.st3{fill:#FFC60B;}
	.st4{fill:#FFFFFF;}
	.st5{fill:#DCDDDE;}
	.st6{fill:#BCBEC0;}
	.st7{fill:#A0BE2F;}
	.st8{fill:#F1F2F2;}
	.st9{fill:#00AAAD;}
	.st10{fill:#808285;}
	.st11{fill:none;}
</style>
<g class="st0">
	<polygon class="st1" points="435.1,116.9 442.1,114.7 406.4,0 398.7,0 	"/>
	<polygon class="st2" points="227.9,10.2 229.7,17.4 298.6,0 268.4,0 	"/>
	
		<rect x="204" y="69" transform="matrix(-0.8956 -0.4448 0.4448 -0.8956 592.7007 284.5082)" class="st3" width="251.5" height="7.4"/>
	<path class="st4" d="M457.2,131.3c-1.3,8-8.9,13.4-16.9,12.1c-8-1.3-13.4-8.9-12.1-16.9s8.9-13.4,16.9-12.1
		C453.1,115.6,458.5,123.2,457.2,131.3"/>
	<path class="st3" d="M442.7,147.2c-1,0-2-0.1-3.1-0.3c-4.8-0.8-9.1-3.5-11.9-7.5c-2.9-4-4-8.9-3.2-13.7c1.5-8.9,9.1-15.4,18.1-15.4
		c1,0,2,0.1,3.1,0.3c4.8,0.8,9.1,3.5,11.9,7.5c2.9,4,4,8.9,3.2,13.7C459.3,140.8,451.7,147.2,442.7,147.2z M442.7,117.8
		c-5.4,0-10,3.9-10.9,9.2c-0.5,2.9,0.2,5.8,1.9,8.2c1.7,2.4,4.3,4,7.2,4.5c0.6,0.1,1.2,0.2,1.8,0.2c5.4,0,10-3.9,10.9-9.2
		c0.5-2.9-0.2-5.8-1.9-8.2s-4.3-4-7.2-4.5C443.9,117.8,443.3,117.8,442.7,117.8z"/>
	<path class="st4" d="M224.8,4.2c6.9,4.2,9.1,13.3,4.9,20.2c-4.2,6.9-13.3,9.1-20.2,4.9s-9.1-13.3-4.9-20.2
		C208.8,2.2,217.9,0,224.8,4.2"/>
	
		<rect x="106.6" y="197.1" transform="matrix(-0.8805 -0.4741 0.4741 -0.8805 407.5684 504.3299)" class="st5" width="321.6" height="7.4"/>
	
		<rect x="360.5" y="259.9" transform="matrix(-0.7452 -0.6669 0.6669 -0.7452 417.5055 813.5505)" class="st6" width="7.4" height="134.2"/>
	
		<rect x="186.2" y="246" transform="matrix(-4.659233e-02 -0.9989 0.9989 -4.659233e-02 78.7572 574.581)" class="st2" width="254.7" height="7.4"/>
	
		<rect x="244.8" y="108.7" transform="matrix(-0.8995 -0.4369 0.4369 -0.8995 365.1479 573.5137)" class="st7" width="7.4" height="272.1"/>
	
		<rect x="32.3" y="242.4" transform="matrix(-0.2519 -0.9678 0.9678 -0.2519 -40.9686 460.4453)" class="st1" width="250.4" height="7.4"/>
	<path class="st4" d="M334,374.5c-1.3-8-8.9-13.4-16.9-12.1s-13.4,8.9-12.1,16.9s8.9,13.4,16.9,12.1S335.3,382.6,334,374.5"/>
	<path class="st2" d="M319.5,395.3L319.5,395.3c-9,0-16.6-6.5-18.1-15.4c-1.7-10,5.1-19.5,15.1-21.2c1-0.2,2-0.2,3-0.2
		c9,0,16.7,6.5,18.2,15.4c0.8,4.9-0.3,9.7-3.2,13.7c-2.9,4-7.1,6.6-12,7.4C321.5,395.3,320.5,395.3,319.5,395.3z M319.5,365.9
		c-0.6,0-1.2,0-1.8,0.1c-6,1-10.1,6.7-9.1,12.7c0.9,5.3,5.5,9.2,10.9,9.2l0,0c0.6,0,1.2-0.1,1.8-0.2c2.9-0.5,5.5-2.1,7.2-4.5
		s2.4-5.3,1.9-8.2C329.5,369.8,324.9,365.9,319.5,365.9z"/>
	<path class="st4" d="M295,115.6c-3.8,7.1-1.1,16,6.1,19.7c7.1,3.8,15.9,1.1,19.7-6.1c3.8-7.1,1.1-16-6.1-19.7
		C307.6,105.7,298.8,108.5,295,115.6"/>
	<path class="st7" d="M307.9,140.7L307.9,140.7c-3,0-5.9-0.7-8.5-2.1c-8.9-4.7-12.3-15.8-7.6-24.7c3.2-6,9.4-9.7,16.2-9.7
		c3,0,5.9,0.7,8.6,2.1c4.3,2.3,7.5,6.1,8.9,10.8c1.4,4.7,1,9.6-1.3,13.9C320.9,137,314.7,140.7,307.9,140.7z M307.9,111.5
		c-4.1,0-7.7,2.2-9.6,5.8c-2.8,5.3-0.8,11.9,4.5,14.8c1.6,0.8,3.3,1.3,5.1,1.3c4.1,0,7.8-2.2,9.7-5.8c1.4-2.6,1.6-5.5,0.8-8.3
		c-0.9-2.8-2.7-5.1-5.3-6.4C311.4,111.9,309.7,111.5,307.9,111.5z"/>
	<path class="st4" d="M202.8,362c-2.8-7.6-11.3-11.5-18.9-8.6c-7.6,2.8-11.5,11.3-8.6,18.9c2.8,7.6,11.3,11.5,18.9,8.7
		C201.8,378.1,205.6,369.7,202.8,362"/>
	<path class="st7" d="M189,385.6L189,385.6c-7.6,0-14.6-4.8-17.2-12c-1.7-4.6-1.5-9.6,0.5-14.1s5.7-7.9,10.3-9.6
		c2.1-0.8,4.2-1.2,6.4-1.2c7.6,0,14.6,4.8,17.2,12c3.5,9.5-1.3,20.1-10.8,23.7C193.4,385.2,191.2,385.6,189,385.6z M189,356.2
		c-1.3,0-2.6,0.2-3.9,0.7c-2.8,1-4.9,3.1-6.2,5.7c-1.2,2.7-1.3,5.7-0.3,8.4c1.6,4.3,5.8,7.2,10.3,7.2l0,0c1.3,0,2.6-0.2,3.8-0.7
		c5.7-2.1,8.6-8.5,6.5-14.2C197.7,359,193.6,356.2,189,356.2z"/>
	<path class="st4" d="M409.3,262.3c-8.1-0.2-14.9,6.2-15.1,14.3c-0.2,8.1,6.2,14.9,14.3,15.1c8.1,0.2,14.9-6.2,15.1-14.3
		C423.9,269.2,417.5,262.5,409.3,262.3"/>
	<path class="st6" d="M409,295.4L409,295.4c-0.2,0-0.3,0-0.5,0c-4.9-0.1-9.5-2.2-12.9-5.7c-3.4-3.6-5.2-8.2-5-13.1
		c0.3-10.2,8.6-18.2,18.9-17.9c4.9,0.1,9.5,2.2,12.9,5.7c3.4,3.6,5.2,8.2,5,13.1C427.1,287.5,419,295.4,409,295.4z M408.9,265.9
		c-5.9,0-10.9,4.8-11,10.8c-0.1,2.9,1,5.7,3,7.9c2,2.1,4.8,3.4,7.7,3.4h0.3c5.9,0,10.9-4.8,11-10.8c0.1-2.9-1-5.7-3-7.9
		s-4.8-3.4-7.7-3.4H408.9z"/>
	<path class="st4" d="M126.2,109.8c-8.1-0.2-14.9,6.2-15.1,14.3s6.2,14.9,14.3,15.1c8.1,0.2,14.9-6.2,15.1-14.3
		S134.3,110,126.2,109.8"/>
	<path class="st5" d="M125.8,142.9c-0.2,0-0.3,0-0.5,0c-4.9-0.1-9.5-2.2-12.9-5.7c-3.4-3.6-5.2-8.2-5-13.1
		c0.3-10.2,8.6-18.2,18.9-17.9c10.1,0.3,18.2,8.7,17.9,18.9C143.9,135,135.9,142.9,125.8,142.9z M125.8,113.5
		c-5.9,0-10.9,4.8-11,10.7c-0.1,2.9,1,5.7,3,7.9c2,2.1,4.8,3.4,7.7,3.4h0.3c6,0,10.9-4.7,11-10.7c0.2-6.1-4.7-11.2-10.7-11.3
		L125.8,113.5z"/>
	
		<rect x="213.5" y="532.1" transform="matrix(-0.9985 -5.563095e-02 5.563095e-02 -0.9985 667.288 1090.2258)" class="st8" width="270.6" height="7.4"/>
	
		<rect x="297.9" y="375.8" transform="matrix(-0.9939 -0.1099 0.1099 -0.9939 542.3207 1103.0779)" class="st6" width="7.4" height="321.6"/>
	
		<rect x="315.2" y="395.8" transform="matrix(-0.9407 -0.3391 0.3391 -0.9407 606.4509 904.912)" class="st2" width="134.2" height="7.4"/>
	<path class="st4" d="M448.3,436.7c8-1.6,13.1-9.4,11.5-17.3c-1.6-8-9.4-13.1-17.3-11.5c-8,1.6-13.1,9.4-11.5,17.3
		S440.3,438.3,448.3,436.7"/>
	<path class="st8" d="M445.4,440.6L445.4,440.6c-8.7,0-16.3-6.2-18-14.8c-1-4.8,0-9.7,2.7-13.8c2.7-4.1,6.9-6.9,11.7-7.8
		c1.2-0.2,2.4-0.4,3.6-0.4c8.7,0,16.3,6.2,18,14.8c2,9.9-4.5,19.7-14.4,21.7C447.8,440.5,446.6,440.6,445.4,440.6z M445.4,411.2
		c-0.7,0-1.5,0.1-2.2,0.2c-2.9,0.6-5.4,2.2-7,4.7s-2.2,5.4-1.6,8.3c1,5.1,5.6,8.9,10.8,8.9l0,0c0.7,0,1.5-0.1,2.2-0.2
		c6-1.2,9.8-7,8.6-13C455.2,414.9,450.6,411.2,445.4,411.2z"/>
	<path class="st4" d="M322.1,391.2c8-1.6,13.1-9.4,11.5-17.3c-1.6-8-9.4-13.1-17.3-11.5c-8,1.6-13.1,9.4-11.5,17.3
		C306.4,387.6,314.1,392.8,322.1,391.2"/>
	<path class="st8" d="M319.2,395.1L319.2,395.1c-8.7,0-16.3-6.2-18-14.8c-2-9.9,4.5-19.7,14.4-21.7c1.2-0.2,2.4-0.4,3.6-0.4
		c8.7,0,16.3,6.2,18,14.8c2,9.9-4.5,19.6-14.4,21.7C321.6,395,320.4,395.1,319.2,395.1z M319.2,365.7c-0.7,0-1.5,0.1-2.2,0.2
		c-6,1.2-9.9,7-8.7,13c1,5.1,5.6,8.9,10.8,8.9l0,0c0.7,0,1.5-0.1,2.2-0.2c6-1.2,9.8-7,8.6-13C329,369.4,324.4,365.7,319.2,365.7z"/>
	
		<rect x="326" y="348.1" transform="matrix(-0.4175 -0.9087 0.9087 -0.4175 35.3445 973.5281)" class="st9" width="7.4" height="254.7"/>
	<path class="st4" d="M206.3,516.1c-6.9,4.2-9,13.2-4.9,20.1c4.2,6.9,13.2,9,20.1,4.9c6.9-4.2,9.1-13.2,4.9-20.1
		C222.2,514,213.2,511.9,206.3,516.1"/>
	<path class="st1" d="M213.9,546.8L213.9,546.8c-6.4,0-12.3-3.3-15.6-8.8c-5.2-8.6-2.5-19.9,6.1-25.1c2.9-1.8,6.2-2.7,9.5-2.7
		c6.4,0,12.3,3.3,15.6,8.8c5.2,8.6,2.5,19.9-6.1,25.1C220.6,545.9,217.3,546.8,213.9,546.8z M213.9,517.6c-2,0-4,0.6-5.7,1.6
		c-5.1,3.1-6.8,9.9-3.6,15c2,3.3,5.5,5.2,9.3,5.2l0,0c2,0,4-0.6,5.7-1.6c5.1-3.1,6.8-9.9,3.6-15
		C221.2,519.6,217.7,517.6,213.9,517.6z"/>
	<path class="st4" d="M437.7,409.7c-6.9,4.2-9.1,13.3-4.9,20.2c4.2,6.9,13.3,9.1,20.2,4.9c6.9-4.2,9.1-13.3,4.9-20.2
		C453.7,407.6,444.7,405.4,437.7,409.7"/>
	<path class="st9" d="M445.4,440.6L445.4,440.6c-6.5,0-12.4-3.3-15.7-8.8c-5.3-8.7-2.5-20,6.1-25.3c2.9-1.8,6.2-2.7,9.6-2.7
		c6.5,0,12.3,3.3,15.7,8.8c5.3,8.6,2.5,20-6.1,25.3C452.1,439.7,448.8,440.6,445.4,440.6z M445.4,411.2c-2,0-4,0.6-5.7,1.6
		c-5.2,3.2-6.8,10-3.7,15.2c2,3.3,5.5,5.3,9.4,5.3c2,0,4-0.6,5.7-1.6c5.2-3.2,6.8-10,3.7-15.2C452.8,413.2,449.3,411.2,445.4,411.2z
		"/>
	<path class="st4" d="M482.4,558c8.1,0.8,15.3-5,16.2-13.1c0.8-8.1-5-15.3-13.1-16.1s-15.3,5-16.2,13.1
		C468.4,549.9,474.3,557.2,482.4,558"/>
	<path class="st6" d="M483.9,561.8L483.9,561.8c-0.6,0-1.3,0-1.9-0.1c-4.9-0.5-9.3-2.9-12.4-6.7s-4.5-8.6-4-13.5
		c1-9.4,8.8-16.5,18.3-16.5c0.6,0,1.3,0,1.9,0.1c4.9,0.5,9.3,2.9,12.4,6.7s4.5,8.6,4,13.5C501.2,554.7,493.4,561.8,483.9,561.8z
		 M483.9,532.3c-5.7,0-10.4,4.3-11,9.9c-0.3,2.9,0.6,5.8,2.4,8.1c1.9,2.3,4.5,3.7,7.4,4c0.4,0,0.8,0.1,1.2,0.1
		c5.7,0,10.4-4.3,11-9.9c0.3-2.9-0.6-5.8-2.4-8.1c-1.9-2.3-4.5-3.7-7.4-4C484.7,532.3,484.3,532.3,483.9,532.3z"/>
	<path class="st4" d="M212.2,542.8c8,0.8,15.2-5,16-13s-5-15.2-13-16s-15.2,5-16,13S204.2,542,212.2,542.8"/>
	<path class="st9" d="M213.7,546.6L213.7,546.6c-0.6,0-1.3,0-1.9-0.1c-4.9-0.5-9.2-2.9-12.3-6.7s-4.5-8.6-4-13.4
		c1-9.3,8.8-16.4,18.1-16.4c0.6,0,1.3,0,1.9,0.1c4.9,0.5,9.2,2.9,12.3,6.7s4.5,8.5,4,13.4C230.9,539.5,223.1,546.6,213.7,546.6z
		 M213.7,517.4c-5.6,0-10.3,4.2-10.8,9.8c-0.3,2.9,0.5,5.8,2.4,8c1.8,2.3,4.4,3.7,7.4,4c0.4,0,0.8,0.1,1.1,0.1
		c5.6,0,10.3-4.2,10.8-9.8c0.3-2.9-0.5-5.7-2.4-8c-1.8-2.3-4.5-3.7-7.4-4C214.5,517.4,214.1,517.4,213.7,517.4z"/>
	
		<rect x="380.3" y="494" transform="matrix(-0.6075 -0.7943 0.7943 -0.6075 125.0727 1301.2391)" class="st1" width="7.4" height="251.5"/>
	<path class="st4" d="M274,685.5c-6,5.5-6.4,14.8-0.9,20.8s14.8,6.4,20.8,0.9s6.4-14.8,0.9-20.8S280,680,274,685.5"/>
	<path class="st10" d="M283.9,714.8L283.9,714.8c-5.2,0-10.1-2.2-13.6-6c-6.8-7.5-6.3-19.1,1.2-26c3.4-3.1,7.8-4.8,12.4-4.8
		c5.2,0,10.1,2.2,13.6,6c3.3,3.6,5,8.3,4.8,13.2s-2.3,9.4-6,12.7C292.9,713.1,288.5,714.8,283.9,714.8z M283.9,685.3
		c-2.8,0-5.4,1-7.4,2.9c-4.5,4.1-4.8,11.1-0.7,15.6c2.1,2.3,5.1,3.6,8.1,3.6l0,0c2.8,0,5.4-1,7.4-2.9c2.2-2,3.5-4.7,3.6-7.6
		c0.1-2.9-0.9-5.8-2.9-7.9C289.9,686.6,287,685.3,283.9,685.3z"/>
	<path class="st4" d="M474,532.5c-6,5.5-6.4,14.8-0.9,20.8s14.8,6.4,20.8,0.9s6.4-14.8,0.9-20.8S480,527,474,532.5"/>
	<path class="st1" d="M483.9,561.7L483.9,561.7c-5.2,0-10.1-2.2-13.6-6c-6.8-7.5-6.3-19.2,1.2-26c3.4-3.1,7.8-4.8,12.4-4.8
		c5.2,0,10.1,2.2,13.6,6c6.8,7.5,6.3,19.2-1.2,26C492.9,560,488.5,561.7,483.9,561.7z M483.9,532.3c-2.8,0-5.4,1-7.4,2.9
		c-4.5,4.1-4.8,11.1-0.7,15.6c2.1,2.3,5,3.6,8.1,3.6c2.8,0,5.4-1,7.4-2.9c4.5-4.1,4.8-11.1,0.7-15.6
		C490,533.6,487,532.3,483.9,532.3z"/>
	<path class="st4" d="M305.4,381.9c2.8,7.6,11.3,11.5,18.9,8.6c7.6-2.8,11.5-11.3,8.6-18.9c-2.8-7.6-11.3-11.5-18.9-8.6
		C306.4,365.8,302.6,374.3,305.4,381.9"/>
	<path class="st2" d="M319.2,395.1L319.2,395.1c-7.6,0-14.6-4.8-17.2-12c-3.6-9.5,1.3-20.1,10.8-23.7c2.1-0.8,4.2-1.2,6.4-1.2
		c7.6,0,14.6,4.8,17.2,12c1.7,4.6,1.5,9.6-0.5,14.1s-5.7,7.9-10.3,9.6C323.6,394.7,321.4,395.1,319.2,395.1z M319.2,365.7
		c-1.3,0-2.6,0.2-3.9,0.7c-5.7,2.1-8.6,8.5-6.5,14.2c1.6,4.3,5.8,7.2,10.3,7.2l0,0c1.3,0,2.6-0.2,3.9-0.7c2.8-1,5-3.1,6.2-5.8
		c1.2-2.7,1.3-5.7,0.3-8.4C327.9,368.6,323.8,365.7,319.2,365.7z"/>
	<path class="st4" d="M270.1,701.5c2.8,7.6,11.3,11.5,18.9,8.6c7.6-2.8,11.5-11.3,8.6-18.9c-2.8-7.6-11.3-11.5-18.9-8.6
		C271.1,685.4,267.3,693.9,270.1,701.5"/>
	<path class="st6" d="M283.9,714.8L283.9,714.8c-7.6,0-14.6-4.8-17.2-12c-3.6-9.5,1.3-20.1,10.8-23.7c2.1-0.8,4.2-1.2,6.4-1.2
		c7.6,0,14.6,4.8,17.2,12c3.6,9.5-1.3,20.1-10.8,23.7C288.2,714.4,286.1,714.8,283.9,714.8z M283.9,685.3c-1.3,0-2.6,0.2-3.9,0.7
		c-5.7,2.1-8.6,8.5-6.5,14.2c1.6,4.3,5.8,7.2,10.3,7.2l0,0c1.3,0,2.6-0.2,3.9-0.7c5.7-2.1,8.6-8.5,6.5-14.2
		C292.6,688.2,288.5,685.3,283.9,685.3z"/>
	<g>
		<path class="st11" d="M207.7,11c-3.2,5.2-1.5,12,3.7,15.2c1.7,1.1,3.7,1.6,5.7,1.6c3.9,0,7.4-2,9.4-5.3c3.2-5.2,1.5-12-3.7-15.2
			c-1.7-1-3.6-1.6-5.7-1.6C213.2,5.7,209.7,7.7,207.7,11z"/>
		<path class="st3" d="M201.4,7.2c-5.3,8.7-2.5,20,6.1,25.3c2.9,1.8,6.2,2.7,9.6,2.7c6.5,0,12.3-3.3,15.7-8.8
			c5.3-8.7,2.5-20-6.1-25.3c-0.7-0.4-1.4-0.8-2.1-1.1h-15C206.3,1.5,203.4,4,201.4,7.2z M226.5,22.5c-2,3.3-5.5,5.3-9.4,5.3
			c-2,0-4-0.5-5.7-1.6c-5.2-3.2-6.9-10-3.7-15.2c2-3.3,5.5-5.3,9.4-5.3c2.1,0,4,0.6,5.7,1.6C228,10.5,229.7,17.3,226.5,22.5z"/>
	</g>
</g>
</svg>
