<?xml version="1.0" encoding="utf-8"?>
<!-- Generator: Adobe Illustrator 17.1.0, SVG Export Plug-In . SVG Version: 6.00 Build 0)  -->
<!DOCTYPE svg PUBLIC "-//W3C//DTD SVG 1.1//EN" "http://www.w3.org/Graphics/SVG/1.1/DTD/svg11.dtd">
<svg version="1.1" id="Layer_1" xmlns="http://www.w3.org/2000/svg" xmlns:xlink="http://www.w3.org/1999/xlink" x="0px" y="0px"
	 viewBox="155.5 0 353.7 697.1" enable-background="new 155.5 0 353.7 697.1" xml:space="preserve">
<g opacity="0.2">
	<polygon fill="#E6E7E8" points="204.7,0 170.4,110.1 177.5,112.2 212.4,0 	"/>
	<g>
		
			<rect x="277.1" y="-60.8" transform="matrix(-0.4448 -0.8956 0.8956 -0.4448 353.6171 335.4533)" fill="#FFC60B" width="7.4" height="237.8"/>
	</g>
	<g>
		<path fill="#FFFFFF" d="M159.4,113.6c1.3,8,8.9,13.4,16.9,12.1s13.4-8.9,12.1-16.9c-1.3-8-8.9-13.4-16.9-12.1
			S158.1,105.6,159.4,113.6"/>
	</g>
	<g>
		<path fill="#FFC60B" d="M173.9,129.5L173.9,129.5c-9,0-16.6-6.5-18.1-15.4c-0.8-4.8,0.3-9.7,3.2-13.7s7.1-6.7,11.9-7.5
			c1-0.2,2-0.3,3.1-0.3c9,0,16.6,6.5,18.1,15.4c0.8,4.8-0.3,9.7-3.2,13.7s-7.1,6.7-11.9,7.5C176,129.5,175,129.5,173.9,129.5z
			 M174,100.1c-0.6,0-1.2,0.1-1.8,0.2c-2.9,0.5-5.5,2.1-7.2,4.5s-2.4,5.3-1.9,8.2c0.9,5.3,5.5,9.2,10.9,9.2l0,0
			c0.6,0,1.2-0.1,1.8-0.2c2.9-0.5,5.5-2.1,7.2-4.5s2.4-5.3,1.9-8.2C183.9,104,179.4,100.1,174,100.1z"/>
	</g>
	<path fill="#FFC60B" d="M410.5,0c-0.3,3.4-2.1,6.6-5.2,8.5c-1.7,1.1-3.7,1.6-5.7,1.6c-3.9,0-7.4-2-9.4-5.3
		c-0.9-1.5-1.4-3.2-1.6-4.9h-7.4c0.1,3,1,6,2.7,8.7c3.4,5.5,9.2,8.8,15.7,8.8c3.4,0,6.7-0.9,9.6-2.7c5.4-3.3,8.5-8.9,8.8-14.8
		L410.5,0L410.5,0z"/>
	<g>
		
			<rect x="345.5" y="22.3" transform="matrix(-0.4741 -0.8805 0.8805 -0.4741 353.5783 577.4578)" fill="#DCDDDE" width="7.4" height="321.6"/>
	</g>
	<g>
		
			<rect x="185.3" y="305.6" transform="matrix(-0.6668 -0.7452 0.7452 -0.6668 190.2254 703.5984)" fill="#BCBEC0" width="134.2" height="7.4"/>
	</g>
	<g>
		
			<rect x="299.4" y="104.7" transform="matrix(-0.9989 -4.657601e-02 4.657601e-02 -0.9989 595.0538 477.9612)" fill="#939598" width="7.4" height="254.7"/>
	</g>
	<g>
		
			<rect x="232.1" y="223.4" transform="matrix(-0.437 -0.8995 0.8995 -0.437 324.7797 657.5274)" fill="#A0BE2F" width="272.1" height="7.4"/>
	</g>
	<g>
		
			<rect x="455.5" y="103.1" transform="matrix(-0.9678 -0.2518 0.2518 -0.9678 846.1727 564.8857)" fill="#E6E7E8" width="7.4" height="250.4"/>
	</g>
	<g>
		<path fill="#FFFFFF" d="M282.6,356.9c1.3-8,8.9-13.4,16.9-12.1s13.4,8.9,12.1,16.9s-8.9,13.4-16.9,12.1S281.3,364.9,282.6,356.9"
			/>
	</g>
	<g>
		<path fill="#939598" d="M297.2,377.7c-1,0-2-0.1-3-0.3c-4.8-0.8-9.1-3.4-12-7.4s-4-8.9-3.2-13.7c1.5-8.9,9.1-15.4,18.2-15.4
			c1,0,2,0.1,3,0.2c10,1.7,16.8,11.1,15.1,21.2C313.8,371.2,306.2,377.7,297.2,377.7z M297.1,348.2c-5.4,0-10,3.9-10.9,9.2
			c-0.5,2.9,0.2,5.8,1.9,8.2c1.7,2.4,4.3,4,7.2,4.4c0.6,0.1,1.2,0.2,1.8,0.2c5.4,0,10-3.9,10.9-9.2c1-6-3.1-11.7-9.1-12.7
			C298.4,348.3,297.7,348.2,297.1,348.2z"/>
	</g>
	<g>
		<path fill="#FFFFFF" d="M321.6,97.9c3.8,7.1,1.1,16-6.1,19.7c-7.1,3.8-15.9,1.1-19.7-6.1c-3.8-7.1-1.1-16,6.1-19.7
			C309,88.1,317.8,90.8,321.6,97.9"/>
	</g>
	<g>
		<path fill="#A0BE2F" d="M308.7,123c-6.8,0-13-3.7-16.2-9.7c-2.3-4.3-2.8-9.3-1.3-13.9c1.4-4.7,4.6-8.5,8.9-10.8
			c2.6-1.4,5.6-2.1,8.5-2.1c6.8,0,13,3.7,16.2,9.7c4.7,8.9,1.3,20-7.6,24.7C314.6,122.3,311.7,123,308.7,123z M308.7,93.8
			c-1.8,0-3.5,0.4-5.1,1.3c-2.6,1.4-4.5,3.6-5.3,6.4c-0.9,2.8-0.6,5.7,0.8,8.3c1.9,3.6,5.6,5.8,9.7,5.8c1.8,0,3.5-0.4,5.1-1.3
			c5.3-2.8,7.3-9.4,4.5-14.8C316.5,96,312.8,93.8,308.7,93.8z"/>
	</g>
	<g>
		<path fill="#FFFFFF" d="M413.8,344.4c2.8-7.6,11.3-11.5,18.9-8.6c7.6,2.8,11.5,11.3,8.6,18.9c-2.8,7.6-11.3,11.5-18.9,8.7
			C414.9,360.5,411,352,413.8,344.4"/>
	</g>
	<g>
		<path fill="#A0BE2F" d="M427.6,367.9c-2.2,0-4.3-0.4-6.4-1.2c-9.5-3.6-14.4-14.2-10.8-23.7c2.7-7.2,9.6-12,17.2-12
			c2.2,0,4.3,0.4,6.4,1.2c4.6,1.7,8.3,5.1,10.3,9.6s2.2,9.5,0.5,14.1C442.2,363.1,435.3,367.9,427.6,367.9z M427.6,338.5
			c-4.6,0-8.7,2.9-10.3,7.2c-2.1,5.7,0.8,12.1,6.5,14.2c1.2,0.5,2.5,0.7,3.8,0.7c4.6,0,8.7-2.9,10.3-7.2c1-2.8,0.9-5.8-0.3-8.4
			c-1.2-2.7-3.4-4.7-6.2-5.7C430.2,338.7,428.9,338.5,427.6,338.5z"/>
	</g>
	<g>
		<path fill="#FFFFFF" d="M207.3,244.6c8.1-0.2,14.9,6.2,15.1,14.3c0.2,8.1-6.2,14.9-14.3,15.1s-14.9-6.2-15.1-14.3
			C192.7,251.6,199.2,244.8,207.3,244.6"/>
	</g>
	<g>
		<path fill="#BCBEC0" d="M207.7,277.7c-10,0-18.1-7.9-18.4-17.9c-0.1-4.9,1.7-9.6,5-13.1c3.4-3.6,8-5.6,12.9-5.7
			c10.3-0.3,18.6,7.7,18.9,17.9c0.1,4.9-1.7,9.6-5,13.1c-3.4,3.6-8,5.6-12.9,5.7C208,277.7,207.8,277.7,207.7,277.7z M207.7,248.3
			h-0.3c-2.9,0.1-5.7,1.3-7.7,3.4s-3.1,4.9-3,7.9c0.2,5.9,5.1,10.8,11,10.8h0.3c2.9-0.1,5.7-1.3,7.7-3.4s3.1-4.9,3-7.9
			C218.6,253.1,213.6,248.3,207.7,248.3z"/>
	</g>
	<g>
		<path fill="#FFFFFF" d="M490.4,92.1c8.1-0.2,14.9,6.2,15.1,14.3s-6.2,14.9-14.3,15.1c-8.1,0.2-14.9-6.2-15.1-14.3
			S482.3,92.3,490.4,92.1"/>
	</g>
	<g>
		<path fill="#DCDDDE" d="M490.8,125.2c-10,0-18.1-7.9-18.4-17.9c-0.1-4.9,1.7-9.6,5-13.1c3.4-3.6,8-5.6,12.9-5.7
			c10.3-0.3,18.6,7.7,18.9,17.9c0.1,4.9-1.7,9.6-5,13.1c-3.4,3.6-7.9,5.6-12.9,5.7C491.1,125.2,491,125.2,490.8,125.2z M490.8,95.8
			h-0.3c-2.9,0.1-5.7,1.3-7.7,3.4s-3.1,4.9-3,7.9c0.2,6,5,10.7,11,10.7h0.3c2.9-0.1,5.7-1.3,7.7-3.4s3.1-4.9,3-7.9
			C501.7,100.5,496.9,95.8,490.8,95.8z"/>
	</g>
	<g>
		
			<rect x="264.1" y="382.8" transform="matrix(-5.559240e-02 -0.9985 0.9985 -5.559240e-02 -234.6238 814.3728)" fill="#F1F2F2" width="7.4" height="270.6"/>
	</g>
	<g>
		
			<rect x="154.2" y="515.2" transform="matrix(-0.1098 -0.994 0.994 -0.1098 -166.1311 889.0222)" fill="#BCBEC0" width="321.6" height="7.4"/>
	</g>
	<g>
		
			<rect x="230.6" y="314.7" transform="matrix(-0.3391 -0.9407 0.9407 -0.3391 -45.3523 731.6531)" fill="#939598" width="7.4" height="134.2"/>
	</g>
	<g>
		<path fill="#FFFFFF" d="M168.3,419c-8-1.6-13.1-9.4-11.5-17.3c1.6-8,9.4-13.1,17.3-11.5c8,1.6,13.1,9.4,11.5,17.3
			C184.1,415.4,176.3,420.6,168.3,419"/>
	</g>
	<g>
		<path fill="#F1F2F2" d="M171.2,423c-1.2,0-2.4-0.1-3.6-0.4c-9.9-2-16.4-11.7-14.4-21.7c1.7-8.6,9.3-14.8,18-14.8
			c1.2,0,2.4,0.1,3.7,0.4c4.8,1,9,3.7,11.7,7.8c2.7,4.1,3.7,9,2.7,13.8C187.5,416.7,180,423,171.2,423z M171.2,393.5
			c-5.2,0-9.8,3.7-10.8,8.9c-1.2,6,2.7,11.8,8.6,13c0.7,0.1,1.5,0.2,2.2,0.2c5.2,0,9.8-3.7,10.8-8.9c0.6-2.9,0-5.8-1.6-8.3
			s-4.1-4.1-7-4.7C172.7,393.6,171.9,393.5,171.2,393.5z"/>
	</g>
	<g>
		<path fill="#FFFFFF" d="M294.5,373.5c-8-1.6-13.1-9.4-11.5-17.3c1.6-8,9.4-13.1,17.3-11.5c8,1.6,13.1,9.4,11.5,17.3
			C310.3,369.9,302.5,375.1,294.5,373.5"/>
	</g>
	<g>
		<path fill="#F1F2F2" d="M297.4,377.4c-1.2,0-2.4-0.1-3.6-0.4c-9.9-2-16.4-11.7-14.4-21.7c1.7-8.6,9.3-14.8,18-14.8
			c1.2,0,2.4,0.1,3.6,0.4c9.9,2,16.4,11.7,14.4,21.7C313.8,371.2,306.2,377.4,297.4,377.4z M297.4,348c-5.2,0-9.8,3.7-10.8,8.9
			c-1.2,6,2.7,11.8,8.6,13c0.7,0.1,1.5,0.2,2.2,0.2c5.2,0,9.8-3.7,10.8-8.9c1.2-6-2.7-11.8-8.7-13C298.9,348.1,298.1,348,297.4,348z
			"/>
	</g>
	<g>
		
			<rect x="159.6" y="454" transform="matrix(-0.9087 -0.4174 0.4174 -0.9087 356.6615 993.355)" fill="#00AAAD" width="254.7" height="7.4"/>
	</g>
	<g>
		<path fill="#FFFFFF" d="M410.3,498.4c6.9,4.2,9,13.2,4.9,20.1c-4.2,6.9-13.2,9-20.1,4.9c-6.9-4.2-9.1-13.2-4.9-20.1
			C394.5,496.4,403.4,494.2,410.3,498.4"/>
	</g>
	<g>
		<path fill="#E6E7E8" d="M402.7,529.1c-3.3,0-6.6-0.9-9.5-2.7c-8.6-5.2-11.3-16.5-6.1-25.1c3.3-5.5,9.2-8.8,15.6-8.8
			c3.3,0,6.6,0.9,9.5,2.7c8.6,5.3,11.3,16.5,6.1,25.1C415,525.8,409.1,529.1,402.7,529.1z M402.7,499.9c-3.8,0-7.3,2-9.3,5.2
			c-3.1,5.1-1.5,11.9,3.6,15c1.7,1,3.7,1.6,5.7,1.6c3.8,0,7.3-2,9.3-5.2c3.1-5.1,1.5-11.9-3.6-15
			C406.7,500.5,404.7,499.9,402.7,499.9z"/>
	</g>
	<g>
		<path fill="#FFFFFF" d="M178.9,392c6.9,4.2,9.1,13.3,4.9,20.2c-4.2,6.9-13.3,9.1-20.2,4.9s-9.1-13.3-4.9-20.2
			C162.9,389.9,172,387.8,178.9,392"/>
	</g>
	<g>
		<path fill="#00AAAD" d="M171.2,422.9c-3.4,0-6.7-0.9-9.6-2.7c-8.7-5.3-11.4-16.6-6.1-25.3c3.4-5.5,9.2-8.8,15.7-8.8
			c3.4,0,6.7,0.9,9.6,2.7c8.6,5.3,11.4,16.6,6.1,25.3C183.6,419.7,177.7,422.9,171.2,422.9z M171.2,393.5c-3.9,0-7.4,2-9.4,5.3
			c-3.2,5.2-1.5,12,3.7,15.2c1.7,1.1,3.7,1.6,5.7,1.6c3.9,0,7.4-2,9.4-5.3c3.2-5.2,1.5-12-3.7-15.2
			C175.2,394.1,173.3,393.5,171.2,393.5z"/>
	</g>
	<g>
		<path fill="#FFFFFF" d="M134.2,540.3c-8.1,0.8-15.3-5-16.2-13.1c-0.8-8.1,5-15.3,13.1-16.1c8.1-0.8,15.3,5,16.2,13.1
			C148.2,532.3,142.3,539.5,134.2,540.3"/>
	</g>
	<g>
		<path fill="#BCBEC0" d="M132.7,544.1c-9.5,0-17.3-7.1-18.3-16.5c-0.5-4.9,0.9-9.7,4-13.5s7.5-6.2,12.4-6.7
			c0.6-0.1,1.3-0.1,1.9-0.1c9.4,0,17.3,7.1,18.3,16.5c0.5,4.9-0.9,9.7-4,13.5s-7.5,6.2-12.4,6.7C134,544,133.3,544.1,132.7,544.1z
			 M132.7,514.7c-0.4,0-0.8,0-1.2,0.1c-2.9,0.3-5.6,1.7-7.4,4c-1.9,2.3-2.7,5.2-2.4,8.1c0.6,5.6,5.3,9.9,11,9.9c0.4,0,0.8,0,1.2-0.1
			c2.9-0.3,5.6-1.7,7.4-4c1.9-2.3,2.7-5.2,2.4-8.1C143.1,518.9,138.4,514.7,132.7,514.7z"/>
	</g>
	<g>
		<path fill="#FFFFFF" d="M404.4,525.2c-8,0.8-15.2-5-16-13s5-15.2,13-16s15.2,5,16,13C418.2,517.2,412.4,524.3,404.4,525.2"/>
	</g>
	<g>
		<path fill="#00AAAD" d="M402.9,528.9c-9.4,0-17.2-7-18.2-16.4c-0.5-4.9,0.9-9.6,4-13.4s7.5-6.2,12.3-6.7c0.6-0.1,1.3-0.1,1.9-0.1
			c9.4,0,17.2,7,18.1,16.4c0.5,4.8-0.9,9.6-4,13.4s-7.5,6.2-12.3,6.7C404.2,528.9,403.5,528.9,402.9,528.9z M402.9,499.7
			c-0.4,0-0.8,0-1.1,0.1c-2.9,0.3-5.5,1.7-7.4,4c-1.8,2.3-2.7,5.1-2.4,8c0.6,5.6,5.2,9.8,10.8,9.8c0.4,0,0.8,0,1.1-0.1
			c2.9-0.3,5.5-1.7,7.3-4s2.7-5.1,2.4-8C413.2,503.9,408.5,499.7,402.9,499.7z"/>
	</g>
	<g>
		
			<rect x="106.9" y="598.4" transform="matrix(-0.7943 -0.6075 0.6075 -0.7943 51.5767 1221.6827)" fill="#E6E7E8" width="251.5" height="7.4"/>
	</g>
	<g>
		<path fill="#FFFFFF" d="M342.7,667.8c6,5.5,6.4,14.8,0.9,20.8s-14.8,6.4-20.8,0.9s-6.4-14.8-0.9-20.8
			C327.4,662.8,336.7,662.4,342.7,667.8"/>
	</g>
	<g>
		<path fill="#808285" d="M332.7,697.1c-4.6,0-9-1.7-12.4-4.8c-3.6-3.3-5.8-7.8-6-12.7s1.5-9.6,4.8-13.2c3.5-3.8,8.4-6,13.6-6
			c4.6,0,9,1.7,12.4,4.8c7.5,6.8,8,18.5,1.2,26C342.9,694.9,337.9,697.1,332.7,697.1z M332.7,667.7c-3.1,0-6.1,1.3-8.1,3.6
			c-2,2.2-3,5-2.9,7.9s1.4,5.7,3.6,7.6c2,1.9,4.7,2.9,7.5,2.9c3.1,0,6.1-1.3,8.1-3.6c4.1-4.5,3.8-11.5-0.7-15.6
			C338.1,668.7,335.5,667.7,332.7,667.7z"/>
	</g>
	<g>
		<path fill="#FFFFFF" d="M142.6,514.8c6,5.5,6.4,14.8,0.9,20.8s-14.8,6.4-20.8,0.9s-6.4-14.8-0.9-20.8
			C127.3,509.8,136.6,509.3,142.6,514.8"/>
	</g>
	<g>
		<path fill="#E6E7E8" d="M132.7,544.1c-4.6,0-9-1.7-12.4-4.8c-7.5-6.8-8-18.5-1.2-26c3.5-3.8,8.4-6,13.6-6c4.6,0,9,1.7,12.4,4.8
			c7.5,6.8,8,18.5,1.2,26C142.8,541.9,137.9,544.1,132.7,544.1z M132.7,514.6c-3.1,0-6.1,1.3-8.2,3.6c-4.1,4.5-3.8,11.5,0.7,15.6
			c2,1.9,4.7,2.9,7.4,2.9c3.1,0,6.1-1.3,8.1-3.6c4.1-4.5,3.8-11.5-0.7-15.6C138.1,515.7,135.5,514.6,132.7,514.6z"/>
	</g>
	<g>
		<path fill="#FFFFFF" d="M311.2,364.2c-2.8,7.6-11.3,11.5-18.9,8.6c-7.6-2.8-11.5-11.3-8.6-18.9c2.8-7.6,11.3-11.5,18.9-8.6
			C310.2,348.1,314.1,356.6,311.2,364.2"/>
	</g>
	<g>
		<path fill="#939598" d="M297.4,377.5c-2.2,0-4.4-0.4-6.4-1.2c-4.6-1.7-8.3-5.1-10.3-9.6s-2.2-9.5-0.5-14.1c2.7-7.2,9.6-12,17.2-12
			c2.2,0,4.4,0.4,6.4,1.2c9.5,3.6,14.3,14.2,10.8,23.7C312,372.6,305.1,377.5,297.4,377.5z M297.4,348c-4.6,0-8.7,2.9-10.3,7.2
			c-1,2.8-0.9,5.8,0.3,8.4c1.2,2.7,3.4,4.7,6.2,5.8c1.2,0.5,2.5,0.7,3.9,0.7c4.6,0,8.7-2.9,10.3-7.2c2.1-5.7-0.8-12.1-6.5-14.2
			C300.1,348.2,298.8,348,297.4,348z"/>
	</g>
	<g>
		<path fill="#FFFFFF" d="M346.5,683.9c-2.8,7.6-11.3,11.5-18.9,8.6c-7.6-2.8-11.5-11.3-8.6-18.9c2.8-7.6,11.3-11.5,18.9-8.6
			C345.5,667.8,349.4,676.2,346.5,683.9"/>
	</g>
	<g>
		<path fill="#BCBEC0" d="M332.7,697.1c-2.2,0-4.4-0.4-6.4-1.2c-9.5-3.6-14.3-14.2-10.8-23.7c2.7-7.2,9.6-12,17.2-12
			c2.2,0,4.4,0.4,6.4,1.2c9.5,3.6,14.3,14.2,10.8,23.7C347.3,692.3,340.4,697.1,332.7,697.1z M332.7,667.7c-4.6,0-8.7,2.9-10.3,7.2
			c-2.1,5.7,0.8,12.1,6.5,14.2c1.2,0.5,2.5,0.7,3.9,0.7c4.6,0,8.7-2.9,10.3-7.2c2.1-5.7-0.8-12.1-6.5-14.2
			C335.4,667.9,334.1,667.7,332.7,667.7z"/>
	</g>
</g>
</svg>
